<svg xmlns="http://www.w3.org/2000/svg" viewBox="0 0 64 64" role="img" aria-label="Tencent Wenjuan">
  <rect width="64" height="64" rx="18" fill="#1677ff"/>
  <path d="M20 16h24a5 5 0 0 1 5 5v22a5 5 0 0 1-5 5H29l-9 7v-7h-1a5 5 0 0 1-5-5V21a5 5 0 0 1 6-5Z" fill="#fff"/>
  <path d="M24 26h16v4H24v-4Zm0 9h11v4H24v-4Z" fill="#1677ff"/>
  <circle cx="43" cy="37" r="5" fill="#00c48c"/>
  <path d="m41 37 1.5 1.6L46 35" fill="none" stroke="#fff" stroke-width="2.3" stroke-linecap="round" stroke-linejoin="round"/>
</svg>
